<?xml version="1.0" encoding="UTF-8" standalone="no"?>
<svg
   xmlns:dc="http://purl.org/dc/elements/1.1/"
   xmlns:cc="http://creativecommons.org/ns#"
   xmlns:rdf="http://www.w3.org/1999/02/22-rdf-syntax-ns#"
   xmlns:svg="http://www.w3.org/2000/svg"
   xmlns="http://www.w3.org/2000/svg"
   viewBox="0 0 486.99998 380"
   height="380"
   width="487"
   xml:space="preserve"
   version="1.1"
   id="svg4209"><metadata
     id="metadata4215"><rdf:RDF><cc:Work
         rdf:about=""><dc:format>image/svg+xml</dc:format><dc:type
           rdf:resource="http://purl.org/dc/dcmitype/StillImage" /><dc:title></dc:title></cc:Work></rdf:RDF></metadata><defs
     id="defs4213"><clipPath
       id="clipPath4223"
       clipPathUnits="userSpaceOnUse"><path
         id="path4225"
         d="m 0,595.275 841.89,0 L 841.89,0 0,0 0,595.275 Z" /></clipPath><clipPath
       id="clipPath4243"
       clipPathUnits="userSpaceOnUse"><path
         id="path4245"
         d="m 459.572,339.22 103.106,0 0,-26.393 -103.106,0 0,26.393 z" /></clipPath><clipPath
       id="clipPath4257"
       clipPathUnits="userSpaceOnUse"><path
         id="path4259"
         d="m 459.572,394.901 63.006,0 0,-82.074 -63.006,0 0,82.074 z" /></clipPath><clipPath
       id="clipPath4271"
       clipPathUnits="userSpaceOnUse"><path
         id="path4273"
         d="m 459.572,405.212 52.649,0 0,-92.385 -52.649,0 0,92.385 z" /></clipPath><clipPath
       id="clipPath4285"
       clipPathUnits="userSpaceOnUse"><path
         id="path4287"
         d="m 459.572,378.831 89.711,0 0,-66.004 -89.711,0 0,66.004 z" /></clipPath><clipPath
       id="clipPath4299"
       clipPathUnits="userSpaceOnUse"><path
         id="path4301"
         d="m 459.572,352.446 32.926,0 0,-39.619 -32.926,0 0,39.619 z" /></clipPath></defs><g
     transform="matrix(1.25,0,0,-1.25,0,380)"
     id="g4217"><rect
       transform="scale(1,-1)"
       y="-305.66315"
       x="1.2607683"
       height="304.84128"
       width="388.86926"
       id="rect4336"
       style="opacity:0.62699998;fill:#ffffff;fill-opacity:1;stroke:none;stroke-width:1;stroke-linecap:round;stroke-miterlimit:4;stroke-dasharray:none;stroke-opacity:1" /><g
       transform="translate(-225.6,-155.2)"
       id="g4219"><g
         clip-path="url(#clipPath4223)"
         id="g4221"><g
           transform="translate(471.1523,263.1084)"
           id="g4227"><path
             id="path4229"
             style="fill:#231f20;fill-opacity:1;fill-rule:nonzero;stroke:none"
             d="m 0,0 c -9.123,-1.474 -13.787,-8.213 -13.787,-20.071 0,-11.933 6.213,-19.912 15.738,-19.912 4.432,0 8.459,1.472 16.924,5.625 l 0,-9.653 c -10.16,-4.66 -16.141,-6.101 -24.326,-6.101 -8.863,0 -15.098,2.353 -20.19,7.543 -5.218,5.219 -7.828,12.115 -7.828,19.791 0,17.078 12.643,28.632 31.11,28.632 12.265,0 20.701,-5.603 20.701,-13.833 0,-5.299 -3.926,-8.946 -9.752,-8.946 -2.99,0 -5.447,0.783 -8.59,2.609 L 0,0 Z" /></g><g
           transform="translate(426.1328,240.3301)"
           id="g4231"><path
             id="path4233"
             style="fill:#231f20;fill-opacity:1;fill-rule:nonzero;stroke:none"
             d="m 0,0 c 8.18,10.312 11.068,14.47 11.068,19.533 0,5.041 -4.002,9.1 -9.347,9.1 -3.293,0 -6.258,-1.555 -7.705,-3.171 l 0,-21.005 -13.402,-17.857 0,40.712 -12.742,0 -21.182,-35.117 0,35.117 -7.322,0 -19.229,-4.688 0,-4.915 10.488,-1.064 0,-43.067 13.557,0 20.316,33.388 0,-33.388 14.846,0 L 0,0 Z" /></g><g
           transform="translate(305.7856,197.0059)"
           id="g4235"><path
             id="path4237"
             style="fill:#231f20;fill-opacity:1;fill-rule:nonzero;stroke:none"
             d="m 0,0 8.791,-1.955 10e-4,-4.988 -34.487,0 0,4.988 7.859,1.955 0,60.248 -8.736,0 0,5.167 21.097,6.408 5.475,0 0,-7.194 c 9.881,5.879 13.275,6.92 18.344,6.92 11.705,0 20.344,-10.795 20.344,-25.742 0,-17.28 -11.528,-28.905 -29.692,-28.905 -2.055,0 -5.473,0.125 -8.996,0.53 L 0,0 Z m 0,23.533 c 1.443,-0.068 2.076,-0.068 2.988,-0.068 10.92,0 16.774,6.808 16.774,19.859 0,11.049 -4.789,16.924 -13.629,16.924 C 4.662,60.248 3.117,60.069 0,59.69 L 0,23.533 Z" /></g><g
           id="g4239"><g
             id="g4241" /><g
             id="g4247"><g
               id="g4249"
               clip-path="url(#clipPath4243)"><path
                 id="path4251"
                 style="fill:#f0649d;fill-opacity:1;fill-rule:nonzero;stroke:none"
                 d="m 562.678,312.827 -103.105,0 0,26.393 103.105,0 0,-26.393 z" /></g></g></g><g
           id="g4253"><g
             id="g4255" /><g
             id="g4261"><g
               id="g4263"
               clip-path="url(#clipPath4257)"><path
                 id="path4265"
                 style="fill:#fab383;fill-opacity:1;fill-rule:nonzero;stroke:none"
                 d="m 522.578,312.827 -63.006,0 0,82.074 63.006,0 0,-82.074 z" /></g></g></g><g
           id="g4267"><g
             id="g4269" /><g
             id="g4275"><g
               id="g4277"
               clip-path="url(#clipPath4271)"><path
                 id="path4279"
                 style="fill:#f7942e;fill-opacity:1;fill-rule:nonzero;stroke:none"
                 d="m 512.221,312.827 -52.648,0 0,92.385 52.648,0 0,-92.385 z" /></g></g></g><g
           id="g4281"><g
             id="g4283" /><g
             id="g4289"><g
               id="g4291"
               clip-path="url(#clipPath4285)"><path
                 id="path4293"
                 style="fill:#fdb924;fill-opacity:1;fill-rule:nonzero;stroke:none"
                 d="m 549.283,312.827 -89.711,0 0,66.004 89.711,0 0,-66.004 z" /></g></g></g><g
           id="g4295"><g
             id="g4297" /><g
             id="g4303"><g
               id="g4305"
               clip-path="url(#clipPath4299)"><path
                 id="path4307"
                 style="fill:#c8a78d;fill-opacity:1;fill-rule:nonzero;stroke:none"
                 d="m 492.498,312.827 -32.926,0 0,39.619 32.926,0 0,-39.619 z" /></g></g></g><path
           id="path4309"
           style="fill:#c32d25;fill-opacity:1;fill-rule:nonzero;stroke:none"
           d="m 406.778,312.827 52.794,0 0,-13.199 -52.794,0 0,13.199 z" /></g></g></g></svg>