<?xml version="1.0" encoding="UTF-8" standalone="no"?>
<!-- Generator: Adobe Illustrator 19.2.1, SVG Export Plug-In . SVG Version: 6.00 Build 0)  -->

<svg
   xmlns:dc="http://purl.org/dc/elements/1.1/"
   xmlns:cc="http://creativecommons.org/ns#"
   xmlns:rdf="http://www.w3.org/1999/02/22-rdf-syntax-ns#"
   xmlns:svg="http://www.w3.org/2000/svg"
   xmlns="http://www.w3.org/2000/svg"
   xmlns:sodipodi="http://sodipodi.sourceforge.net/DTD/sodipodi-0.dtd"
   xmlns:inkscape="http://www.inkscape.org/namespaces/inkscape"
   version="1.1"
   id="Layer_1"
   x="0px"
   y="0px"
   viewBox="0 0 400 100"
   xml:space="preserve"
   inkscape:version="0.91 r13725"
   sodipodi:docname="stickermule.svg"
   width="400"
   height="100"><metadata
     id="metadata4264"><rdf:RDF><cc:Work
         rdf:about=""><dc:format>image/svg+xml</dc:format><dc:type
           rdf:resource="http://purl.org/dc/dcmitype/StillImage" /><dc:title></dc:title></cc:Work></rdf:RDF></metadata><defs
     id="defs4262" /><sodipodi:namedview
     pagecolor="#ffffff"
     bordercolor="#666666"
     borderopacity="1"
     objecttolerance="10"
     gridtolerance="10"
     guidetolerance="10"
     inkscape:pageopacity="0"
     inkscape:pageshadow="2"
     inkscape:window-width="1920"
     inkscape:window-height="1021"
     id="namedview4260"
     showgrid="false"
     inkscape:zoom="1"
     inkscape:cx="222.87346"
     inkscape:cy="105.04824"
     inkscape:window-x="0"
     inkscape:window-y="0"
     inkscape:window-maximized="1"
     inkscape:current-layer="Layer_1" /><style
     type="text/css"
     id="style4229">
	.Arched_x0020_Green{fill:url(#SVGID_1_);stroke:#FFFFFF;stroke-width:0.25;stroke-miterlimit:1;}
	.st0{fill:#4E2817;}
	.st1{fill-rule:evenodd;clip-rule:evenodd;fill:#4E2817;}
	.st2{fill:#F26922;}
</style><linearGradient
     id="SVGID_1_"
     gradientUnits="userSpaceOnUse"
     x1="330.30688"
     y1="115.7228"
     x2="331.01401"
     y2="115.0157"><stop
       offset="0"
       style="stop-color:#1EAB4B"
       id="stop4232" /><stop
       offset="0.9831"
       style="stop-color:#19361A"
       id="stop4234" /></linearGradient><path
     class="st0"
     d="m 83.825968,73.2489 c -5.443202,0 -10.432784,-0.6048 -14.817584,-4.9896 l 5.669982,-5.67 c 2.8728,2.8728 6.5772,3.2508 9.298802,3.2508 3.024,0 6.1236,-0.9828 6.1236,-3.6288 0,-1.7388 -0.9072,-2.9484 -3.7044,-3.1752 l -5.443202,-0.5292 c -6.2748,-0.6048 -10.130382,-3.3264 -10.130382,-9.7524 0,-7.182 6.350382,-11.1132 13.456784,-11.1132 5.4432,0 9.9792,0.9072 13.3056,4.0824 l -5.3676,5.4432 c -2.0412,-1.8144 -5.0652,-2.3436 -8.0892,-2.3436 -3.477602,0 -4.914002,1.5876 -4.914002,3.3264 0,1.2852 0.5292,2.7216 3.628802,3.024 l 5.4432,0.5292 c 6.8796,0.6804 10.3572,4.3092 10.3572,10.206 0,7.7112 -6.5772,11.34 -14.8176,11.34 z"
     id="path4236"
     inkscape:connector-curvature="0"
     style="fill:#4e2817" /><path
     class="st0"
     d="m 113.76357,72.8709 c -7.1064,0 -10.0548,-4.9896 -10.0548,-9.9792 l 0,-17.2368 -3.7044,0 0,-6.5772 3.7044,0 0,-10.2816 8.694,0 0,10.2816 6.1236,0 0,6.5772 -6.1236,0 0,16.7076 c 0,1.9656 0.9072,3.1752 3.024,3.1752 l 3.1752,0 0,7.3332 -4.8384,0 z"
     id="path4238"
     inkscape:connector-curvature="0"
     style="fill:#4e2817" /><path
     class="st0"
     d="m 122.38197,32.1225 0,-7.1064 8.9208,0 0,7.1064 -8.9208,0 z m 0.1512,40.7484 0,-34.776 8.694,0 0,34.776 -8.694,0 z"
     id="path4240"
     inkscape:connector-curvature="0"
     style="fill:#4e2817" /><path
     class="st0"
     d="m 150.80757,73.2489 c -6.9552,0 -15.5736,-3.7044 -15.5736,-17.8416 0,-14.0616 8.6184,-17.766 15.5736,-17.766 4.8384,0 8.3916,1.4364 11.4912,4.6872 l -5.8968,5.8968 c -1.8144,-1.9656 -3.3264,-2.7216 -5.5944,-2.7216 -2.0412,0 -3.7044,0.756 -4.914,2.268 -1.3608,1.6632 -1.9656,4.0068 -1.9656,7.7112 0,3.7044 0.6048,6.048 1.9656,7.7868 1.2852,1.512 2.8728,2.268 4.914,2.268 2.268,0 3.78,-0.8316 5.5944,-2.7216 l 5.8968,5.8212 c -3.0996,3.0996 -6.6528,4.6116 -11.4912,4.6116 z"
     id="path4242"
     inkscape:connector-curvature="0"
     style="fill:#4e2817" /><path
     class="st0"
     d="m 186.26397,72.8709 -8.5428,-14.5152 -3.7044,4.158 0,10.3572 -8.694,0 0,-47.5524 8.694,0 0,26.9892 11.5668,-14.2128 10.5084,0 -12.3984,14.0616 13.3812,20.79 -10.8108,0 z"
     id="path4244"
     inkscape:connector-curvature="0"
     style="fill:#4e2817" /><path
     class="st0"
     d="m 204.25677,58.1289 c 0,4.4604 2.7216,7.7112 7.6356,7.7112 3.78,0 5.67,-1.0584 7.8624,-3.2508 l 5.292,5.1408 c -3.5532,3.5532 -6.9552,5.4432 -13.23,5.4432 -8.2404,0 -16.1028,-3.7044 -16.1028,-17.8416 0,-11.34 6.1236,-17.766 15.1956,-17.766 9.6768,0 15.1956,7.1064 15.1956,16.632 l 0,3.8556 -21.8484,0 z m 12.474,-9.6768 c -0.9072,-2.0412 -2.8728,-3.6288 -5.8212,-3.6288 -2.9484,0 -4.914,1.512 -5.8212,3.6288 -0.5292,1.2852 -0.756,2.1924 -0.8316,3.7044 l 13.23,0 c -0.0756,-1.512 -0.2268,-2.4192 -0.756,-3.7044 z"
     id="path4246"
     inkscape:connector-curvature="0"
     style="fill:#4e2817" /><path
     class="st0"
     d="m 249.08757,47.5449 c -1.3608,-1.3608 -2.4948,-2.0412 -4.6116,-2.0412 -2.646,0 -5.5944,2.0412 -5.5944,6.426 l 0,20.9412 -8.694,0 0,-34.776 8.4672,0 0,3.3264 c 1.6632,-2.0412 4.9896,-3.7044 8.7696,-3.7044 3.402,0 5.8212,0.8316 8.2404,3.2508 l -6.5772,6.5772 z"
     id="path4248"
     inkscape:connector-curvature="0"
     style="fill:#4e2817" /><path
     class="st1"
     d="m 42.245984,76.7265 c -0.5292,0.2268 -1.2096,0.1512 -1.89,0.2268 -0.6048,0 -1.4364,0 -1.8144,-0.3024 -0.2268,-0.1512 -0.2268,-0.5292 -0.2268,-0.756 0,-0.2268 0.0756,-0.6048 0.0756,-0.8316 0.0756,-0.3024 0.1512,-0.756 0,-0.9828 -0.1512,-0.2268 -0.6804,-0.1512 -0.9828,-0.3024 -0.3024,-0.1512 -0.378,-0.6048 -0.4536,-1.0584 0,-0.1512 -0.1512,-0.3024 -0.1512,-0.378 -0.0756,-0.6804 0.1512,-1.6632 0.3024,-2.3436 0.1512,-0.756 0.378,-1.4364 0.5292,-2.1924 0.2268,-1.0584 0.2268,-2.268 0.1512,-3.402 0,-0.6048 -0.1512,-1.0584 0,-1.512 0.0756,-0.4536 0.3024,-0.8316 0.378,-1.2852 0,-0.1512 0,-0.3024 0,-0.4536 0,-0.1512 0.0756,-0.2268 0.0756,-0.378 0,-0.3024 -0.0756,-0.6804 -0.0756,-1.0584 -0.0756,-0.9828 0,-2.4192 0.0756,-3.2508 0,-0.3024 0.1512,-0.6048 -0.0756,-0.756 -1.0584,0 -1.9656,0.1512 -2.9484,0.3024 -2.5704,0.3024 -5.8968,0.378 -8.3916,-0.1512 -0.2268,-0.0756 -0.4536,-0.0756 -0.6804,-0.0756 -1.8144,-0.378 -3.402007,-1.2096 -4.687207,-2.1924 -0.2268,-0.1512 -0.4536,-0.3024 -0.6804,-0.5292 -0.2268,-0.1512 -0.4536,-0.378 -0.6804,-0.5292 -0.9828,-0.4536 -2.3436,0.0756 -2.7972,0.756 -0.1512,0.2268 -0.3024,0.6048 -0.4536,0.9072 -0.1512,0.3024 -0.3024,0.6048 -0.378,0.9072 -0.6804,1.512 -1.4364,3.024 -2.1168,4.536 -0.378,0.9072 -0.8316,1.89 -1.134,2.8728 -0.6048,2.1168 -0.0756,4.914 0.4536,6.9552 0.0756,0.1512 0.1512,0.378 0.2268,0.6048 0.1512,0.4536 0.4536,1.134 0.8316,1.4364 0.2268,0.1512 0.5292,0.3024 0.756,0.4536 0.3024,0.2268 0.4536,0.6804 0.6804,1.134 0.0756,0.1512 0.2268,0.378 0.3024,0.6048 0.2268,0.4536 0.378,0.8316 -0.1512,1.134 -0.378,0.2268 -0.9828,0.2268 -1.512,0.3024 -0.2268,0.0756 -0.1512,0.378 -0.3024,0.5292 -0.0756,0.0756 -0.4536,0.2268 -0.6048,0.3024 -0.6804,0.2268 -1.89,0.2268 -2.4192,0 -0.3024,-0.0756 -0.6048,-0.3024 -0.6804,-0.5292 -0.1512,-0.4536 0.2268,-0.9828 -0.0756,-1.2852 -0.1512,-0.1512 -0.4536,-0.1512 -0.6804,-0.2268 -0.3779998,-0.1512 -0.6803998,-0.5292 -0.9071998,-0.9072 -0.378,-1.0584 -0.1512,-2.646 -0.2268,-3.9312 0,-0.378 -0.0756,-0.756 -0.0756,-1.2096 0,-0.756 -0.2268,-1.512 -0.3024,-2.268 -0.0756,-0.378 -0.1512,-0.6804 -0.2268,-0.9828 -0.1512,-0.5292 -0.2268,-1.134 -0.378,-1.6632 -0.1512,-0.6048 -0.1512,-1.2096 0,-1.6632 0.0756,-0.1512 0.2268,-0.3024 0.3024,-0.4536 0.1512,-0.3024 0.1512,-0.6048 0.1512,-0.9072 -0.0756,-0.1512 -0.4536,0 -0.5292,-0.1512 -0.2268,-1.6632 -0.4536,-3.2508 -0.6048,-4.9896 -0.0756,-0.6048 -0.0756,-1.134 -0.0756,-1.7388 -0.0756,-1.134 0,-2.3436 -0.1512,-3.4776 -0.0756,-0.5292 -0.1512,-1.0584 -0.2268,-1.5876 -0.2268,-1.512 -0.6048,-3.402 -0.3024,-4.9896 0.2268,-0.9828 0.5292,-1.8144 1.134,-2.5704 0.378,-0.5292 0.8316,-0.9828 1.2852,-1.512 0.4536,-0.4536 0.9828,-0.9072 1.5119998,-1.2852 0.378,-0.2268 0.756,-0.5292 1.134,-0.756 0.8316,-0.378 1.9656,-0.756 3.1752,-0.8316 1.2096,-0.0756 2.5704,-0.0756 3.7044,0.1512 1.134,0.2268 2.268,0.378 3.402,0.6048 1.0584,0.2268 2.116807,0.5292 3.175207,0.756 0.1512,0 0.2268,0.1512 0.378,0.1512 0.3024,0.0756 0.6804,0.0756 1.0584,0.2268 0.9828,0.2268 2.1924,0.378 3.402,0.378 1.2852,0 2.4192,0 3.4776,-0.3024 0.1512,-0.0756 0.3024,-0.1512 0.4536,-0.1512 0.1512,-0.0756 0.378,-0.0756 0.5292,-0.0756 0.0756,0 0.2268,-0.1512 0.3024,-0.2268 0.6048,-0.3024 1.134,-0.6048 1.6632,-0.9828 0.4536,-0.3024 0.756,-0.5292 1.3608,-0.756 0.2268,-0.0756 0.5292,-0.2268 0.756,-0.3024 0.5292,-0.1512 1.134,-0.3024 1.512,-0.6048 0.6804,-0.378 1.134,-0.9828 1.6632,-1.512 0.5292,-0.4536 1.134,-0.9828 1.7388,-1.4364 1.2096,-0.9828 2.4192,-1.8144 3.5532,-2.7216 0.6048,-0.4536 1.2096,-0.9072 1.89,-1.2852 1.2852,-0.756 2.646,-1.5876 4.536,-1.7388 0.756,-0.0756 1.512,-0.0756 2.268,0 0.2268,0 0.4536,0.1512 0.6804,0.0756 0.2268,-0.0756 0.378,-0.378 0.4536,-0.6048 0.3024,-0.5292 0.4536,-0.8316 0.756,-1.4364 0.1512,-0.378 0.0756,-0.756 0.4536,-0.756 0.378,0 0.3024,0.9828 0.3024,1.3608 0,0.4536 -0.0756,1.0584 0,1.3608 0.0756,0.2268 0.378,0.5292 0.6804,0.5292 0.2268,0 0.378,-0.1512 0.5292,-0.3024 0.2268,-0.1512 0.378,-0.1512 0.5292,-0.3024 0.3024,-0.2268 0.6804,-0.6048 0.9828,-0.9072 0.2268,-0.2268 0.6804,-0.9072 1.0584,-0.8316 0.756,0.0756 0,1.2096 -0.1512,1.512 -0.378,0.8316 -0.756,1.512 -1.2096,2.268 -0.1512,0.3024 -0.6048,0.756 -0.6048,1.134 0,0.2268 0.2268,0.378 0.3024,0.6804 0.0756,0.1512 0.0756,0.2268 0.1512,0.378 0.2268,0.6048 0.4536,1.4364 0.6804,2.1168 0.1512,0.6048 0.3024,1.2096 0.5292,1.7388 0.2268,0.5292 0.5292,1.0584 0.756,1.6632 0.0756,0.1512 0.0756,0.3024 0.1512,0.4536 0.4536,1.2096 0.9072,2.5704 1.512,3.78 0.2268,0.4536 0.5292,1.0584 0.5292,1.7388 0,0.756 -0.378,1.134 -0.756,1.7388 -0.1512,0.3024 -0.4536,0.756 -0.756,0.8316 -0.2268,0.0756 -0.4536,0 -0.6804,0 -0.3024,0.0756 -0.5292,0.2268 -0.756,0.2268 -0.6804,0.0756 -1.3608,-0.4536 -1.512,-0.9828 -0.0756,-0.1512 0,-0.378 -0.0756,-0.6048 -0.1512,-0.8316 -0.6048,-1.2096 -1.134,-1.8144 -0.378,-0.378 -0.6804,-0.6048 -1.134,-0.8316 -0.6804,-0.378 -1.3608,-0.5292 -2.1168,-0.9072 -0.2268,-0.1512 -0.6048,-0.3024 -0.8316,-0.2268 -0.378,0.0756 -0.756,0.6804 -1.0584,1.0584 -1.8144,2.4192 -3.4776,4.914 -5.2164,7.2576 -1.2096,1.5876 -2.4192,3.1752 -3.402,4.914 -0.2268,0.4536 -0.378,0.9828 -0.6048,1.512 -0.1512,0.5292 -0.3024,1.0584 -0.4536,1.6632 -0.6804,1.9656 -0.9072,4.3848 -1.512,6.426 -0.0756,0.2268 -0.0756,0.4536 -0.1512,0.6804 -0.3024,1.0584 -0.6048,2.268 -0.9072,3.402 -0.2268,0.8316 -0.3024,1.9656 -0.378,3.024 0,1.0584 -0.0756,2.4948 0.3024,3.0996 0.2268,0.378 0.9072,0.4536 1.134,0.8316 0.1512,0.2268 0.3024,0.756 0.5292,1.0584 0.1512,0.2268 0.5292,0.6804 0.4536,1.0584 0,0.2268 -0.2268,0.4536 -0.4536,0.5292 -0.2268,0.0756 -0.5292,0.0756 -0.756,0.1512 0,0.3024 0.0756,0.6048 -0.1512,0.756 z"
     id="path4250"
     inkscape:connector-curvature="0"
     style="clip-rule:evenodd;fill:#4e2817;fill-rule:evenodd" /><path
     class="st2"
     d="m 294.67437,37.6413 c -4.3092,0 -7.4844,1.3608 -10.4328,4.3848 -2.1924,-3.024 -5.3676,-4.3848 -9.2232,-4.3848 -3.1752,0 -6.426,1.2852 -8.694,3.6288 l 0,-3.1752 -8.4672,0 0,34.776 8.694,0 0,-21.0168 c 0,-4.7628 3.0996,-6.3504 5.8212,-6.3504 2.7216,0 5.7456,1.5876 5.7456,6.3504 l 0,21.0168 8.694,0 0,-21.2436 c 0,-4.536 3.1752,-6.1236 5.8212,-6.1236 2.7216,0 5.7456,1.5876 5.7456,6.3504 l 0,21.0168 8.694,0 0,-22.2264 c 0,-3.78 -0.9828,-7.1064 -3.78,-9.9036 -2.0412,-1.9656 -5.1408,-3.0996 -8.6184,-3.0996 z"
     id="path4252"
     inkscape:connector-curvature="0"
     style="fill:#f26922" /><path
     class="st2"
     d="m 332.39877,59.1117 c 0,4.7628 -3.0996,6.3504 -5.8212,6.3504 -2.7216,0 -5.7456,-1.5876 -5.7456,-6.3504 l 0,-21.0924 -8.694,0 0,22.302 c 0,3.78 0.756,7.1064 3.5532,9.9036 1.9656,1.9656 4.7628,3.0996 8.2404,3.0996 3.1752,0 6.426,-1.2096 8.694,-3.6288 l 0,3.1752 8.4672,0 0,-34.776 -8.694,0 0,21.0168 z"
     id="path4254"
     inkscape:connector-curvature="0"
     style="fill:#f26922" /><path
     class="st2"
     d="m 355.30557,62.3625 0,-37.044 -8.694,0 0,37.5732 c 0,4.914 3.024,9.9792 10.1304,9.9792 l 4.914,0 0,-7.3332 -3.3264,0 c -2.1924,0 -3.024,-1.0584 -3.024,-3.1752 z"
     id="path4256"
     inkscape:connector-curvature="0"
     style="fill:#f26922" /><path
     class="st2"
     d="m 393.55917,54.2733 c 0,-9.5256 -5.4432,-16.632 -15.1956,-16.632 -8.9964,0 -15.1956,6.426 -15.1956,17.766 0,14.0616 7.8624,17.8416 16.1028,17.8416 6.2748,0 9.6768,-1.9656 13.23,-5.4432 l -5.292,-5.1408 c -2.1924,2.1924 -4.0824,3.2508 -7.8624,3.2508 -4.914,0 -7.6356,-3.2508 -7.6356,-7.7112 l 21.7728,0 0,-3.9312 z m -21.7728,-2.0412 c 0.0756,-1.512 0.3024,-2.4948 0.8316,-3.7044 0.9072,-2.0412 2.8728,-3.6288 5.8212,-3.6288 2.9484,0 4.8384,1.512 5.8212,3.6288 0.5292,1.2852 0.756,2.1924 0.8316,3.7044 l -13.3056,0 z"
     id="path4258"
     inkscape:connector-curvature="0"
     style="fill:#f26922" /></svg>